<svg width="362" height="43" viewBox="0 0 362 43" fill="none" xmlns="http://www.w3.org/2000/svg">
<path d="M13.13 24.9C12.83 24.9 12.5 24.9 12.14 24.9C11.8 24.88 11.45 24.87 11.09 24.87C10.73 24.85 10.41 24.84 10.13 24.84C9.19 24.84 8.22 24.85 7.22 24.87C6.24 24.89 5.28 24.9 4.34 24.9V16.86C5.28 16.86 6.24 16.87 7.22 16.89C8.22 16.91 9.19 16.92 10.13 16.92C10.41 16.92 10.73 16.92 11.09 16.92C11.45 16.9 11.8 16.89 12.14 16.89C12.5 16.87 12.83 16.86 13.13 16.86H20.06C20.34 16.86 20.66 16.87 21.02 16.89C21.38 16.89 21.73 16.9 22.07 16.92C22.43 16.92 22.76 16.92 23.06 16.92C24 16.92 24.96 16.91 25.94 16.89C26.92 16.87 27.88 16.86 28.82 16.86V24.9C27.88 24.9 26.92 24.89 25.94 24.87C24.96 24.85 24 24.84 23.06 24.84C22.76 24.84 22.43 24.85 22.07 24.87C21.73 24.87 21.38 24.88 21.02 24.9C20.66 24.9 20.34 24.9 20.06 24.9H13.13ZM10.19 42C9.39 42.14 8.54 42.23 7.64 42.27C6.76 42.33 6 42.36 5.36 42.36C4.78 42.36 4.03 42.33 3.11 42.27C2.19 42.23 1.34 42.14 0.56 42V1.02C1.34 0.879999 2.19 0.789998 3.11 0.749996C4.03 0.689998 4.78 0.659999 5.36 0.659999C6 0.659999 6.76 0.689998 7.64 0.749996C8.54 0.789998 9.39 0.879999 10.19 1.02V12.48C10.19 13.32 10.18 14.07 10.16 14.73C10.14 15.37 10.13 16.1 10.13 16.92V24.84C10.13 25.64 10.14 26.37 10.16 27.03C10.18 27.69 10.19 28.44 10.19 29.28V42ZM23 29.28C23 28.44 23.01 27.69 23.03 27.03C23.05 26.37 23.06 25.64 23.06 24.84V16.92C23.06 16.1 23.05 15.37 23.03 14.73C23.01 14.07 23 13.32 23 12.48V1.02C23.8 0.879999 24.64 0.789998 25.52 0.749996C26.4 0.689998 27.16 0.659999 27.8 0.659999C28.38 0.659999 29.13 0.689998 30.05 0.749996C30.99 0.789998 31.84 0.879999 32.6 1.02V42C31.78 42.14 30.96 42.23 30.14 42.27C29.32 42.33 28.58 42.36 27.92 42.36C27.24 42.36 26.45 42.33 25.55 42.27C24.67 42.23 23.82 42.14 23 42V29.28ZM41.5114 9.27L41.8414 8.94H50.8114V16.5C50.8114 17.14 50.8214 17.68 50.8414 18.12C50.8614 18.56 50.8714 19.09 50.8714 19.71V30.96C50.8714 31.7 50.8614 32.31 50.8414 32.79C50.8214 33.27 50.8114 33.87 50.8114 34.59V42.12H47.0014C45.3014 42.12 43.9614 41.64 42.9814 40.68C42.0014 39.7 41.5114 38.39 41.5114 36.75V9.27ZM62.3014 21.66C62.5014 22.2 62.6314 22.82 62.6914 23.52C62.7714 24.2 62.8114 24.78 62.8114 25.26C62.8114 25.82 62.7714 26.45 62.6914 27.15C62.6314 27.83 62.5014 28.45 62.3014 29.01H54.6214C54.1614 29.01 53.4814 29.01 52.5814 29.01C51.6814 29.01 50.7614 29.01 49.8214 29.01C48.9014 28.99 48.1514 28.97 47.5714 28.95V21.78C48.1514 21.76 48.9014 21.74 49.8214 21.72C50.7614 21.7 51.6814 21.69 52.5814 21.69C53.4814 21.67 54.1614 21.66 54.6214 21.66H62.3014ZM65.5714 8.94C65.7114 9.62 65.7914 10.27 65.8114 10.89C65.8314 11.51 65.8414 12.1 65.8414 12.66C65.8414 13.2 65.7814 13.81 65.6614 14.49C65.5614 15.17 65.3814 15.86 65.1214 16.56H54.6214C54.1614 16.56 53.4814 16.56 52.5814 16.56C51.6814 16.54 50.7614 16.52 49.8214 16.5C48.9014 16.48 48.1514 16.46 47.5714 16.44V8.94H65.5714ZM66.6814 34.47C66.6814 37.33 66.2314 39.32 65.3314 40.44C64.4514 41.56 62.9514 42.12 60.8314 42.12H47.6914V34.83C48.8514 34.79 49.7914 34.74 50.5114 34.68C51.2514 34.62 51.9414 34.57 52.5814 34.53C53.2414 34.49 54.0314 34.47 54.9514 34.47H66.6814ZM80.8306 8.94C81.8706 8.78 82.8706 8.68 83.8306 8.64C84.8106 8.6 85.7006 8.58 86.5006 8.58C87.2406 8.58 88.0406 8.6 88.9006 8.64C89.7606 8.68 90.7306 8.78 91.8106 8.94L103.151 41.55C102.451 41.87 101.561 42.11 100.481 42.27C99.4006 42.45 98.5306 42.54 97.8706 42.54C96.7706 42.54 95.7106 42.33 94.6906 41.91C93.6706 41.49 92.9006 40.38 92.3806 38.58L88.6906 26.76C88.3906 25.72 88.0806 24.58 87.7606 23.34C87.4606 22.1 87.1606 20.87 86.8606 19.65C86.5806 18.41 86.3106 17.26 86.0506 16.2H85.6906C85.2706 17.72 84.8006 19.46 84.2806 21.42C83.7806 23.38 83.2906 25.15 82.8106 26.73L77.9206 42C77.3406 42.14 76.7106 42.24 76.0306 42.3C75.3506 42.38 74.6406 42.42 73.9006 42.42C73.1006 42.42 72.2906 42.36 71.4706 42.24C70.6706 42.12 70.0106 41.95 69.4906 41.73L69.1606 41.22L80.8306 8.94ZM81.6106 36.21C81.3306 36.21 81.0606 36.21 80.8006 36.21C80.5406 36.19 80.2706 36.18 79.9906 36.18C79.7306 36.16 79.4606 36.15 79.1806 36.15H74.9506L77.8906 28.8H81.5506C81.8106 28.8 82.0706 28.8 82.3306 28.8C82.6106 28.78 82.8806 28.77 83.1406 28.77C83.4206 28.75 83.7006 28.74 83.9806 28.74H87.7306C88.0106 28.74 88.2706 28.75 88.5106 28.77C88.7506 28.77 88.9906 28.78 89.2306 28.8C89.4706 28.8 89.7306 28.8 90.0106 28.8H93.9406L96.5506 36.15H92.1706C91.8706 36.15 91.5906 36.16 91.3306 36.18C91.0706 36.18 90.8106 36.19 90.5506 36.21C90.2906 36.21 90.0206 36.21 89.7406 36.21H81.6106ZM117.112 42.18H113.092C111.372 42.18 110.022 41.7 109.042 40.74C108.082 39.76 107.602 38.45 107.602 36.81V9L107.962 8.64H111.562C113.382 8.64 114.762 9.1 115.702 10.02C116.642 10.92 117.112 12.43 117.112 14.55V42.18ZM131.062 34.32C130.942 37.24 130.432 39.28 129.532 40.44C128.632 41.6 127.032 42.18 124.732 42.18H113.092L109.102 35.85C111.402 35.33 113.792 34.95 116.272 34.71C118.772 34.45 120.902 34.32 122.662 34.32H131.062ZM127.67 16.62C127.51 15.9 127.41 15.23 127.37 14.61C127.33 13.97 127.31 13.39 127.31 12.87C127.31 12.35 127.33 11.74 127.37 11.04C127.41 10.32 127.51 9.62 127.67 8.94H154.82C154.96 9.48 155.06 10.09 155.12 10.77C155.2 11.45 155.24 12 155.24 12.42C155.24 13.78 154.88 14.82 154.16 15.54C153.44 16.26 152.24 16.62 150.56 16.62H149.33C148.91 16.62 148.35 16.61 147.65 16.59C146.97 16.57 146.44 16.56 146.06 16.56H136.67C136.25 16.56 135.67 16.57 134.93 16.59C134.21 16.61 133.64 16.62 133.22 16.62H127.67ZM136.61 20.19C136.61 19.55 136.62 18.96 136.64 18.42C136.66 17.86 136.67 17.24 136.67 16.56V12.84H146.06V16.56C146.06 17.24 146.07 17.86 146.09 18.42C146.11 18.96 146.12 19.55 146.12 20.19V42C145.56 42.12 144.79 42.21 143.81 42.27C142.83 42.33 142.01 42.36 141.35 42.36C140.73 42.36 139.95 42.33 139.01 42.27C138.07 42.21 137.27 42.12 136.61 42V20.19ZM171.345 28.71C171.065 28.71 170.775 28.71 170.475 28.71C170.175 28.69 169.875 28.68 169.575 28.68C169.295 28.66 169.005 28.65 168.705 28.65C167.785 28.65 166.845 28.66 165.885 28.68C164.945 28.7 164.005 28.71 163.065 28.71V21C164.005 21 164.945 21.01 165.885 21.03C166.845 21.05 167.785 21.06 168.705 21.06C169.005 21.06 169.295 21.06 169.575 21.06C169.875 21.04 170.175 21.03 170.475 21.03C170.775 21.01 171.065 21 171.345 21H176.595C176.875 21 177.155 21.01 177.435 21.03C177.735 21.03 178.025 21.04 178.305 21.06C178.585 21.06 178.875 21.06 179.175 21.06C180.115 21.06 181.035 21.05 181.935 21.03C182.855 21.01 183.785 21 184.725 21V28.71C183.785 28.71 182.855 28.7 181.935 28.68C181.035 28.66 180.115 28.65 179.175 28.65C178.875 28.65 178.585 28.66 178.305 28.68C178.025 28.68 177.735 28.69 177.435 28.71C177.155 28.71 176.875 28.71 176.595 28.71H171.345ZM168.765 42C167.965 42.14 167.145 42.23 166.305 42.27C165.465 42.33 164.745 42.36 164.145 42.36C163.585 42.36 162.825 42.33 161.865 42.27C160.905 42.23 160.045 42.14 159.285 42V8.94C160.045 8.76 160.905 8.65 161.865 8.61C162.825 8.55 163.585 8.52 164.145 8.52C164.745 8.52 165.465 8.55 166.305 8.61C167.145 8.65 167.965 8.76 168.765 8.94V17.52C168.765 18.2 168.755 18.81 168.735 19.35C168.715 19.87 168.705 20.44 168.705 21.06V28.65C168.705 29.27 168.715 29.84 168.735 30.36C168.755 30.88 168.765 31.49 168.765 32.19V42ZM179.115 32.19C179.115 31.49 179.125 30.88 179.145 30.36C179.165 29.84 179.175 29.27 179.175 28.65V21.06C179.175 20.44 179.165 19.87 179.145 19.35C179.125 18.81 179.115 18.2 179.115 17.52V8.94C179.895 8.76 180.705 8.65 181.545 8.61C182.405 8.55 183.135 8.52 183.735 8.52C184.295 8.52 185.055 8.55 186.015 8.61C186.975 8.65 187.845 8.76 188.625 8.94V42C187.785 42.14 186.935 42.23 186.075 42.27C185.235 42.33 184.495 42.36 183.855 42.36C183.215 42.36 182.465 42.33 181.605 42.27C180.765 42.23 179.935 42.14 179.115 42V32.19ZM243.939 1.36523L244.848 14.8711H243.939C242.729 10.8281 241 7.91797 238.754 6.14062C236.508 4.36328 233.812 3.47461 230.668 3.47461C228.031 3.47461 225.648 4.14844 223.52 5.49609C221.391 6.82422 219.711 8.95312 218.48 11.8828C217.27 14.8125 216.664 18.4551 216.664 22.8105C216.664 26.4043 217.24 29.5195 218.393 32.1562C219.545 34.793 221.273 36.8145 223.578 38.2207C225.902 39.627 228.549 40.3301 231.518 40.3301C234.096 40.3301 236.371 39.7832 238.344 38.6895C240.316 37.5762 242.484 35.3789 244.848 32.0977L245.756 32.6836C243.764 36.2188 241.439 38.8066 238.783 40.4473C236.127 42.0879 232.973 42.9082 229.32 42.9082C222.738 42.9082 217.641 40.4668 214.027 35.584C211.332 31.9512 209.984 27.6738 209.984 22.752C209.984 18.7871 210.873 15.1445 212.65 11.8242C214.428 8.50391 216.869 5.93555 219.975 4.11914C223.1 2.2832 226.508 1.36523 230.199 1.36523C233.07 1.36523 235.902 2.06836 238.695 3.47461C239.516 3.9043 240.102 4.11914 240.453 4.11914C240.98 4.11914 241.439 3.93359 241.83 3.5625C242.338 3.03516 242.699 2.30273 242.914 1.36523H243.939ZM257.592 0.339844V19.9688C259.76 17.5859 261.479 16.0625 262.748 15.3984C264.018 14.7148 265.287 14.373 266.557 14.373C268.08 14.373 269.389 14.793 270.482 15.6328C271.576 16.4727 272.387 17.791 272.914 19.5879C273.285 20.8379 273.471 23.123 273.471 26.4434V35.9355C273.471 37.6348 273.607 38.7969 273.881 39.4219C274.076 39.8906 274.408 40.2617 274.877 40.5352C275.346 40.8086 276.205 40.9453 277.455 40.9453V42H264.271V40.9453H264.887C266.137 40.9453 267.006 40.7598 267.494 40.3887C267.982 39.998 268.324 39.4316 268.52 38.6895C268.578 38.377 268.607 37.459 268.607 35.9355V26.4434C268.607 23.5137 268.451 21.5898 268.139 20.6719C267.846 19.7539 267.367 19.0703 266.703 18.6211C266.039 18.1523 265.238 17.918 264.301 17.918C263.344 17.918 262.348 18.1719 261.312 18.6797C260.277 19.1875 259.037 20.2129 257.592 21.7559V35.9355C257.592 37.7715 257.689 38.9141 257.885 39.3633C258.1 39.8125 258.48 40.1934 259.027 40.5059C259.594 40.7988 260.561 40.9453 261.928 40.9453V42H248.627V40.9453C249.818 40.9453 250.756 40.7598 251.439 40.3887C251.83 40.1934 252.143 39.8223 252.377 39.2754C252.611 38.7285 252.729 37.6152 252.729 35.9355V11.6484C252.729 8.58203 252.65 6.69727 252.494 5.99414C252.357 5.29102 252.133 4.8125 251.82 4.55859C251.527 4.30469 251.127 4.17773 250.619 4.17773C250.209 4.17773 249.545 4.33398 248.627 4.64648L248.217 3.62109L256.244 0.339844H257.592ZM284.223 25.2715C284.203 29.2559 285.17 32.3809 287.123 34.6465C289.076 36.9121 291.371 38.0449 294.008 38.0449C295.766 38.0449 297.289 37.5664 298.578 36.6094C299.887 35.6328 300.98 33.9727 301.859 31.6289L302.768 32.2148C302.357 34.8906 301.166 37.332 299.193 39.5391C297.221 41.7266 294.75 42.8203 291.781 42.8203C288.559 42.8203 285.795 41.5703 283.49 39.0703C281.205 36.5508 280.062 33.1719 280.062 28.9336C280.062 24.3438 281.234 20.7695 283.578 18.2109C285.941 15.6328 288.9 14.3438 292.455 14.3438C295.463 14.3438 297.934 15.3398 299.867 17.332C301.801 19.3047 302.768 21.9512 302.768 25.2715H284.223ZM284.223 23.5723H296.645C296.547 21.8535 296.342 20.6426 296.029 19.9395C295.541 18.8457 294.809 17.9863 293.832 17.3613C292.875 16.7363 291.869 16.4238 290.814 16.4238C289.193 16.4238 287.738 17.0586 286.449 18.3281C285.18 19.5781 284.438 21.3262 284.223 23.5723ZM329.164 31.8047C328.441 35.3398 327.025 38.0645 324.916 39.9785C322.807 41.873 320.473 42.8203 317.914 42.8203C314.867 42.8203 312.211 41.541 309.945 38.9824C307.68 36.4238 306.547 32.9668 306.547 28.6113C306.547 24.3926 307.797 20.9648 310.297 18.3281C312.816 15.6914 315.834 14.373 319.35 14.373C321.986 14.373 324.154 15.0762 325.854 16.4824C327.553 17.8691 328.402 19.3145 328.402 20.8184C328.402 21.5605 328.158 22.166 327.67 22.6348C327.201 23.084 326.537 23.3086 325.678 23.3086C324.525 23.3086 323.656 22.9375 323.07 22.1953C322.738 21.7852 322.514 21.0039 322.396 19.8516C322.299 18.6992 321.908 17.8203 321.225 17.2148C320.541 16.6289 319.594 16.3359 318.383 16.3359C316.43 16.3359 314.857 17.0586 313.666 18.5039C312.084 20.418 311.293 22.9473 311.293 26.0918C311.293 29.2949 312.074 32.127 313.637 34.5879C315.219 37.0293 317.348 38.25 320.023 38.25C321.938 38.25 323.656 37.5957 325.18 36.2871C326.254 35.3887 327.299 33.7578 328.314 31.3945L329.164 31.8047ZM340.971 0.339844V27.0586L347.797 20.8184C349.242 19.4902 350.082 18.6504 350.316 18.2988C350.473 18.0645 350.551 17.8301 350.551 17.5957C350.551 17.2051 350.385 16.873 350.053 16.5996C349.74 16.3066 349.213 16.1406 348.471 16.1016V15.1641H360.131V16.1016C358.529 16.1406 357.191 16.3848 356.117 16.834C355.062 17.2832 353.9 18.084 352.631 19.2363L345.746 25.5938L352.631 34.2949C354.545 36.6973 355.834 38.2207 356.498 38.8652C357.436 39.7832 358.256 40.3789 358.959 40.6523C359.447 40.8477 360.297 40.9453 361.508 40.9453V42H348.471V40.9453C349.213 40.9258 349.711 40.8184 349.965 40.623C350.238 40.4082 350.375 40.1152 350.375 39.7441C350.375 39.2949 349.984 38.5723 349.203 37.5762L340.971 27.0586V35.9648C340.971 37.7031 341.088 38.8457 341.322 39.3926C341.576 39.9395 341.928 40.3301 342.377 40.5645C342.826 40.7988 343.803 40.9258 345.307 40.9453V42H331.654V40.9453C333.021 40.9453 334.047 40.7793 334.73 40.4473C335.141 40.2324 335.453 39.9004 335.668 39.4512C335.961 38.8066 336.107 37.6934 336.107 36.1113V11.6777C336.107 8.57227 336.039 6.67773 335.902 5.99414C335.766 5.29102 335.541 4.8125 335.229 4.55859C334.916 4.28516 334.506 4.14844 333.998 4.14844C333.588 4.14844 332.973 4.31445 332.152 4.64648L331.654 3.62109L339.623 0.339844H340.971Z" fill="black"/>
</svg>
